<svg xmlns="http://www.w3.org/2000/svg" width="49" height="40.732" viewBox="0 0 49 40.732">
  <g id="Group_1" data-name="Group 1" transform="translate(-151 -359)">
    <path id="heart" d="M27.222,5.143a7.32,7.32,0,0,0-10.354,0L15.458,6.554,14.047,5.143A7.321,7.321,0,0,0,3.693,15.5L5.1,16.908,15.458,27.262,25.812,16.908,27.222,15.5a7.32,7.32,0,0,0,0-10.354Z" transform="translate(159.951 372.47)" fill="#f7c7a1"/>
    <circle id="Ellipse_1" data-name="Ellipse 1" cx="4.5" cy="4.5" r="4.5" transform="translate(151 370)" fill="#f7c7a1"/>
    <circle id="Ellipse_2" data-name="Ellipse 2" cx="4.5" cy="4.5" r="4.5" transform="translate(191 370)" fill="#f7c7a1"/>
    <circle id="Ellipse_3" data-name="Ellipse 3" cx="5.5" cy="5.5" r="5.5" transform="translate(178 359)" fill="#f7c7a1"/>
    <circle id="Ellipse_4" data-name="Ellipse 4" cx="5.5" cy="5.5" r="5.5" transform="translate(162 359)" fill="#f7c7a1"/>
  </g>
</svg>
